<svg width="27" height="34" viewBox="0 0 27 34" fill="none" xmlns="http://www.w3.org/2000/svg">
<path d="M16.1979 1.50446C16.3463 0.758551 15.8161 0.0404996 15.0564 0.0749624C15.0312 0.0761038 15.006 0.07734 14.9809 0.0786709C13.662 0.148396 12.4601 0.446036 11.3753 0.971592C10.3114 1.49604 9.40483 2.21701 8.65561 3.1345C7.90638 4.05199 7.34358 5.12057 6.96721 6.34024C6.59084 7.55991 6.44122 8.89927 6.51836 10.3583C6.64023 12.6636 7.22046 14.5058 8.25904 15.8847C9.06182 16.9081 10.1475 17.6806 11.516 18.2023C12.1996 18.4629 12.9165 17.9993 13.0593 17.2817L13.715 13.9857C13.8444 13.3349 13.4426 12.7176 12.8581 12.4036C12.5376 12.2314 12.2765 12.037 12.0748 11.8203C11.6074 11.3183 11.3514 10.6442 11.3066 9.79793C11.2665 9.03922 11.388 8.35975 11.6712 7.75953C11.9753 7.1582 12.4224 6.68099 13.0125 6.3279C13.6236 5.9737 14.3687 5.77337 15.248 5.72688V5.72688C15.3131 5.72344 15.3679 5.67669 15.3806 5.61277L16.1979 1.50446Z" fill="#01AC1C"/>
<path d="M11.8915 14.7264C12.6533 14.7136 13.1893 15.4365 13.046 16.1848L12.44 19.3496C12.316 19.9971 11.7208 20.4122 11.0628 20.4542C10.6259 20.4821 10.1773 20.5747 9.73916 20.7992C9.16862 21.0915 8.7147 21.6252 8.3774 22.4005C7.98195 23.3094 7.91314 24.1856 8.17095 25.029C8.44041 25.8457 9.19367 26.5232 10.4307 27.0614V27.0614C10.7113 27.1835 10.8835 27.4783 10.826 27.7788L10.1179 31.4764C9.98117 32.1907 9.27462 32.6589 8.59413 32.4022C8.45404 32.3494 8.31605 32.2934 8.18015 32.2343C7.06171 31.7477 6.14064 31.1085 5.41696 30.3167C4.70491 29.4982 4.19555 28.5613 3.8889 27.5058C3.58224 26.4504 3.49207 25.3143 3.61838 24.0975C3.75633 22.854 4.11607 21.5639 4.69762 20.2272C5.58157 18.1955 6.69776 16.7417 8.0462 15.8659C9.34895 15.0013 10.649 14.7472 11.8915 14.7264Z" fill="#01AC1C"/>
<path d="M15.3624 15.3306C14.6585 15.0387 13.8944 15.514 13.7526 16.2627L13.1531 19.4293C13.0304 20.0771 13.4315 20.6819 14.0279 20.9628C14.424 21.1493 14.8072 21.4004 15.1322 21.7702C15.5554 22.2518 15.7814 22.9151 15.8101 23.7602C15.8439 24.751 15.5859 25.5912 15.0361 26.281C14.4854 26.9416 13.5359 27.2948 12.1876 27.3407V27.3407C11.8817 27.3511 11.6133 27.562 11.5563 27.8627L10.8558 31.5625C10.7206 32.277 11.2056 32.9721 11.9327 32.9835C12.0825 32.9858 12.2314 32.9845 12.3795 32.9794C13.5985 32.9379 14.6901 32.682 15.6541 32.2115C16.6171 31.712 17.4352 31.0277 18.1083 30.1587C18.7813 29.2897 19.2827 28.2661 19.6124 27.0879C19.9412 25.8806 20.0807 24.5484 20.0311 23.0913C19.9557 20.8766 19.4519 19.1141 18.5197 17.8039C17.6259 16.5209 16.5103 15.8066 15.3624 15.3306Z" fill="#01AC1C"/>
<path d="M16.6732 1.51295C16.8178 0.766409 17.5799 0.30206 18.2702 0.621059C18.2929 0.631548 18.3155 0.642125 18.3382 0.652791C19.5322 1.21541 20.5318 1.94485 21.3369 2.84111C22.1232 3.72844 22.6895 4.7383 23.0361 5.87068C23.3826 7.00307 23.4995 8.20493 23.3868 9.47627C23.2741 10.7476 22.9064 12.0441 22.2836 13.3659C21.2996 15.4542 20.0665 16.9406 18.5843 17.825C17.455 18.4692 16.1589 18.7744 14.6959 18.7408C13.9643 18.724 13.4756 18.0236 13.6148 17.3051L14.2537 14.006C14.3798 13.3548 14.9849 12.9353 15.6446 12.8652C16.0062 12.8268 16.3212 12.7454 16.5896 12.6211C17.2118 12.3328 17.7036 11.8054 18.0648 11.0388C18.3886 10.3515 18.533 9.6765 18.4978 9.01386C18.4437 8.34229 18.2103 7.73163 17.7977 7.18187C17.3662 6.62318 16.7524 6.15629 15.9564 5.78121V5.78121C15.8975 5.75345 15.8644 5.68947 15.8767 5.62554L16.6732 1.51295Z" fill="#01AC1C"/>
</svg>
